<mxfile host="Electron" agent="Mozilla/5.0 (Windows NT 10.0; Win64; x64) AppleWebKit/537.36 (KHTML, like Gecko) draw.io/24.7.17 Chrome/128.0.6613.36 Electron/32.0.1 Safari/537.36" version="24.7.17">
  <diagram name="Page-1" id="-tM_h6M-ZUvWs_S7XpUB">
    <mxGraphModel dx="724" dy="434" grid="1" gridSize="10" guides="1" tooltips="1" connect="1" arrows="1" fold="1" page="1" pageScale="1" pageWidth="827" pageHeight="1169" math="1" shadow="0">
      <root>
        <mxCell id="0" />
        <mxCell id="1" parent="0" />
        <mxCell id="5KsOTFAmmzwVCX8RhJ43-7" style="edgeStyle=orthogonalEdgeStyle;rounded=0;orthogonalLoop=1;jettySize=auto;html=1;exitX=0.5;exitY=0;exitDx=0;exitDy=0;endArrow=none;endFill=0;startArrow=classic;startFill=1;" parent="1" source="5KsOTFAmmzwVCX8RhJ43-1" edge="1">
          <mxGeometry relative="1" as="geometry">
            <mxPoint x="570" y="240" as="targetPoint" />
          </mxGeometry>
        </mxCell>
        <mxCell id="5KsOTFAmmzwVCX8RhJ43-10" style="edgeStyle=orthogonalEdgeStyle;rounded=0;orthogonalLoop=1;jettySize=auto;html=1;exitX=1;exitY=0.5;exitDx=0;exitDy=0;" parent="1" source="5KsOTFAmmzwVCX8RhJ43-1" edge="1">
          <mxGeometry relative="1" as="geometry">
            <mxPoint x="660" y="305" as="targetPoint" />
          </mxGeometry>
        </mxCell>
        <mxCell id="5KsOTFAmmzwVCX8RhJ43-12" style="edgeStyle=orthogonalEdgeStyle;rounded=0;orthogonalLoop=1;jettySize=auto;html=1;exitX=1;exitY=0.5;exitDx=0;exitDy=0;entryX=1;entryY=0.5;entryDx=0;entryDy=0;" parent="1" source="5KsOTFAmmzwVCX8RhJ43-1" target="5KsOTFAmmzwVCX8RhJ43-11" edge="1">
          <mxGeometry relative="1" as="geometry">
            <Array as="points">
              <mxPoint x="640" y="305" />
              <mxPoint x="640" y="395" />
            </Array>
          </mxGeometry>
        </mxCell>
        <mxCell id="5KsOTFAmmzwVCX8RhJ43-1" value="Robot" style="rounded=0;whiteSpace=wrap;html=1;strokeWidth=2;" parent="1" vertex="1">
          <mxGeometry x="530" y="280" width="80" height="50" as="geometry" />
        </mxCell>
        <mxCell id="5KsOTFAmmzwVCX8RhJ43-5" style="edgeStyle=orthogonalEdgeStyle;rounded=0;orthogonalLoop=1;jettySize=auto;html=1;exitX=1;exitY=0.5;exitDx=0;exitDy=0;entryX=0;entryY=0.5;entryDx=0;entryDy=0;" parent="1" source="5KsOTFAmmzwVCX8RhJ43-2" target="5KsOTFAmmzwVCX8RhJ43-1" edge="1">
          <mxGeometry relative="1" as="geometry" />
        </mxCell>
        <mxCell id="5KsOTFAmmzwVCX8RhJ43-2" value="Joints&lt;div&gt;(&lt;span style=&quot;background-color: initial;&quot;&gt;Motors)&lt;/span&gt;&lt;/div&gt;" style="rounded=0;whiteSpace=wrap;html=1;strokeWidth=2;" parent="1" vertex="1">
          <mxGeometry x="390" y="280" width="80" height="50" as="geometry" />
        </mxCell>
        <mxCell id="5KsOTFAmmzwVCX8RhJ43-4" style="edgeStyle=orthogonalEdgeStyle;rounded=0;orthogonalLoop=1;jettySize=auto;html=1;exitX=1;exitY=0.5;exitDx=0;exitDy=0;entryX=0;entryY=0.5;entryDx=0;entryDy=0;" parent="1" source="5KsOTFAmmzwVCX8RhJ43-3" target="5KsOTFAmmzwVCX8RhJ43-2" edge="1">
          <mxGeometry relative="1" as="geometry" />
        </mxCell>
        <mxCell id="5KsOTFAmmzwVCX8RhJ43-3" value="Controller" style="rounded=0;whiteSpace=wrap;html=1;strokeWidth=2;" parent="1" vertex="1">
          <mxGeometry x="250" y="280" width="80" height="50" as="geometry" />
        </mxCell>
        <mxCell id="5KsOTFAmmzwVCX8RhJ43-14" style="edgeStyle=orthogonalEdgeStyle;rounded=0;orthogonalLoop=1;jettySize=auto;html=1;exitX=0;exitY=0.5;exitDx=0;exitDy=0;endArrow=none;endFill=0;startArrow=classic;startFill=1;" parent="1" source="5KsOTFAmmzwVCX8RhJ43-3" edge="1">
          <mxGeometry relative="1" as="geometry">
            <mxPoint x="150" y="305" as="targetPoint" />
            <mxPoint x="180" y="305" as="sourcePoint" />
          </mxGeometry>
        </mxCell>
        <mxCell id="5KsOTFAmmzwVCX8RhJ43-33" style="edgeStyle=orthogonalEdgeStyle;rounded=0;orthogonalLoop=1;jettySize=auto;html=1;exitX=0;exitY=0.5;exitDx=0;exitDy=0;entryX=0.5;entryY=1;entryDx=0;entryDy=0;" parent="1" source="5KsOTFAmmzwVCX8RhJ43-11" target="5KsOTFAmmzwVCX8RhJ43-3" edge="1">
          <mxGeometry relative="1" as="geometry" />
        </mxCell>
        <mxCell id="5KsOTFAmmzwVCX8RhJ43-11" value="Sensors and Estimators" style="rounded=0;whiteSpace=wrap;html=1;strokeWidth=2;" parent="1" vertex="1">
          <mxGeometry x="370" y="370" width="170" height="50" as="geometry" />
        </mxCell>
        <mxCell id="5KsOTFAmmzwVCX8RhJ43-15" value="Disturbance" style="text;html=1;align=center;verticalAlign=middle;whiteSpace=wrap;rounded=0;fontFamily=Garamond;" parent="1" vertex="1">
          <mxGeometry x="540" y="220" width="60" height="20" as="geometry" />
        </mxCell>
        <mxCell id="5KsOTFAmmzwVCX8RhJ43-18" value="$$ \dot{\theta}$$" style="text;html=1;align=center;verticalAlign=middle;whiteSpace=wrap;rounded=0;" parent="1" vertex="1">
          <mxGeometry x="615" y="289" width="15" height="10" as="geometry" />
        </mxCell>
        <mxCell id="5KsOTFAmmzwVCX8RhJ43-23" value="$$ \theta$$" style="text;html=1;align=center;verticalAlign=middle;whiteSpace=wrap;rounded=0;" parent="1" vertex="1">
          <mxGeometry x="631" y="291" width="15" height="10" as="geometry" />
        </mxCell>
        <mxCell id="5KsOTFAmmzwVCX8RhJ43-24" value="$$ \tau$$" style="text;html=1;align=center;verticalAlign=middle;whiteSpace=wrap;rounded=0;" parent="1" vertex="1">
          <mxGeometry x="490" y="288" width="15" height="10" as="geometry" />
        </mxCell>
        <mxCell id="5KsOTFAmmzwVCX8RhJ43-26" value="$$ \dot{\theta}_d$$" style="text;html=1;align=center;verticalAlign=middle;whiteSpace=wrap;rounded=0;" parent="1" vertex="1">
          <mxGeometry x="195" y="288" width="15" height="10" as="geometry" />
        </mxCell>
        <mxCell id="5KsOTFAmmzwVCX8RhJ43-27" value="$$ \ddot{\theta}_d$$" style="text;html=1;align=center;verticalAlign=middle;whiteSpace=wrap;rounded=0;" parent="1" vertex="1">
          <mxGeometry x="226" y="288" width="15" height="10" as="geometry" />
        </mxCell>
        <mxCell id="5KsOTFAmmzwVCX8RhJ43-29" value="$$ \theta_d$$" style="text;html=1;align=center;verticalAlign=middle;whiteSpace=wrap;rounded=0;" parent="1" vertex="1">
          <mxGeometry x="160" y="289" width="15" height="10" as="geometry" />
        </mxCell>
        <mxCell id="5KsOTFAmmzwVCX8RhJ43-34" value="Desired Reference" style="text;html=1;align=center;verticalAlign=middle;whiteSpace=wrap;rounded=0;fontFamily=Garamond;" parent="1" vertex="1">
          <mxGeometry x="168" y="314" width="60" height="20" as="geometry" />
        </mxCell>
        <mxCell id="5KsOTFAmmzwVCX8RhJ43-35" value="$$ V$$" style="text;html=1;align=center;verticalAlign=middle;whiteSpace=wrap;rounded=0;" parent="1" vertex="1">
          <mxGeometry x="350" y="289" width="15" height="10" as="geometry" />
        </mxCell>
        <mxCell id="zqJEMAXFBgw-pL-KyHL0-1" value="" style="endArrow=none;html=1;rounded=0;strokeWidth=2;" edge="1" parent="1">
          <mxGeometry width="50" height="50" relative="1" as="geometry">
            <mxPoint x="269" y="600" as="sourcePoint" />
            <mxPoint x="399" y="600" as="targetPoint" />
          </mxGeometry>
        </mxCell>
        <mxCell id="zqJEMAXFBgw-pL-KyHL0-2" value="" style="endArrow=none;html=1;rounded=0;strokeWidth=2;" edge="1" parent="1">
          <mxGeometry width="50" height="50" relative="1" as="geometry">
            <mxPoint x="270" y="600" as="sourcePoint" />
            <mxPoint x="280" y="610" as="targetPoint" />
            <Array as="points">
              <mxPoint x="270" y="600" />
            </Array>
          </mxGeometry>
        </mxCell>
        <mxCell id="zqJEMAXFBgw-pL-KyHL0-3" value="" style="endArrow=none;html=1;rounded=0;strokeWidth=2;" edge="1" parent="1">
          <mxGeometry width="50" height="50" relative="1" as="geometry">
            <mxPoint x="285" y="600" as="sourcePoint" />
            <mxPoint x="295" y="610" as="targetPoint" />
            <Array as="points">
              <mxPoint x="285" y="600" />
            </Array>
          </mxGeometry>
        </mxCell>
        <mxCell id="zqJEMAXFBgw-pL-KyHL0-4" value="" style="endArrow=none;html=1;rounded=0;strokeWidth=2;" edge="1" parent="1">
          <mxGeometry width="50" height="50" relative="1" as="geometry">
            <mxPoint x="300" y="600" as="sourcePoint" />
            <mxPoint x="310" y="610" as="targetPoint" />
            <Array as="points">
              <mxPoint x="300" y="600" />
            </Array>
          </mxGeometry>
        </mxCell>
        <mxCell id="zqJEMAXFBgw-pL-KyHL0-5" value="" style="endArrow=none;html=1;rounded=0;strokeWidth=2;" edge="1" parent="1">
          <mxGeometry width="50" height="50" relative="1" as="geometry">
            <mxPoint x="316" y="600" as="sourcePoint" />
            <mxPoint x="326" y="610" as="targetPoint" />
            <Array as="points">
              <mxPoint x="316" y="600" />
            </Array>
          </mxGeometry>
        </mxCell>
        <mxCell id="zqJEMAXFBgw-pL-KyHL0-6" value="" style="endArrow=none;html=1;rounded=0;strokeWidth=2;" edge="1" parent="1">
          <mxGeometry width="50" height="50" relative="1" as="geometry">
            <mxPoint x="333" y="600" as="sourcePoint" />
            <mxPoint x="343" y="610" as="targetPoint" />
            <Array as="points">
              <mxPoint x="333" y="600" />
            </Array>
          </mxGeometry>
        </mxCell>
        <mxCell id="zqJEMAXFBgw-pL-KyHL0-8" value="" style="endArrow=none;html=1;rounded=0;strokeWidth=2;" edge="1" parent="1">
          <mxGeometry width="50" height="50" relative="1" as="geometry">
            <mxPoint x="349" y="600" as="sourcePoint" />
            <mxPoint x="359" y="610" as="targetPoint" />
            <Array as="points">
              <mxPoint x="349" y="600" />
            </Array>
          </mxGeometry>
        </mxCell>
        <mxCell id="zqJEMAXFBgw-pL-KyHL0-9" value="" style="endArrow=none;html=1;rounded=0;strokeWidth=2;" edge="1" parent="1">
          <mxGeometry width="50" height="50" relative="1" as="geometry">
            <mxPoint x="365" y="600" as="sourcePoint" />
            <mxPoint x="375" y="610" as="targetPoint" />
            <Array as="points">
              <mxPoint x="365" y="600" />
            </Array>
          </mxGeometry>
        </mxCell>
        <mxCell id="zqJEMAXFBgw-pL-KyHL0-10" value="" style="endArrow=none;html=1;rounded=0;strokeWidth=2;" edge="1" parent="1">
          <mxGeometry width="50" height="50" relative="1" as="geometry">
            <mxPoint x="381" y="600" as="sourcePoint" />
            <mxPoint x="391" y="610" as="targetPoint" />
            <Array as="points">
              <mxPoint x="381" y="600" />
            </Array>
          </mxGeometry>
        </mxCell>
        <mxCell id="zqJEMAXFBgw-pL-KyHL0-11" value="" style="endArrow=none;html=1;rounded=0;strokeWidth=2;" edge="1" parent="1">
          <mxGeometry width="50" height="50" relative="1" as="geometry">
            <mxPoint x="398" y="600" as="sourcePoint" />
            <mxPoint x="408" y="610" as="targetPoint" />
            <Array as="points">
              <mxPoint x="398" y="600" />
            </Array>
          </mxGeometry>
        </mxCell>
        <mxCell id="zqJEMAXFBgw-pL-KyHL0-12" value="" style="verticalLabelPosition=bottom;shadow=0;dashed=0;align=center;html=1;verticalAlign=top;shape=mxgraph.electrical.logic_gates.inverting_contact;strokeWidth=2;" vertex="1" parent="1">
          <mxGeometry x="330" y="594.9999999999995" width="10" height="10" as="geometry" />
        </mxCell>
        <mxCell id="zqJEMAXFBgw-pL-KyHL0-13" value="" style="endArrow=none;html=1;rounded=0;entryX=0.5;entryY=1;entryDx=0;entryDy=0;exitX=0.735;exitY=0.113;exitDx=0;exitDy=0;exitPerimeter=0;" edge="1" parent="1" source="zqJEMAXFBgw-pL-KyHL0-12" target="zqJEMAXFBgw-pL-KyHL0-14">
          <mxGeometry width="50" height="50" relative="1" as="geometry">
            <mxPoint x="330" y="590" as="sourcePoint" />
            <mxPoint x="380" y="520" as="targetPoint" />
          </mxGeometry>
        </mxCell>
        <mxCell id="zqJEMAXFBgw-pL-KyHL0-14" value="" style="whiteSpace=wrap;html=1;aspect=fixed;rotation=30;" vertex="1" parent="1">
          <mxGeometry x="365" y="520" width="21" height="21" as="geometry" />
        </mxCell>
        <mxCell id="zqJEMAXFBgw-pL-KyHL0-16" value="$$ l$$" style="text;html=1;align=center;verticalAlign=middle;whiteSpace=wrap;rounded=0;fontSize=8;" vertex="1" parent="1">
          <mxGeometry x="340" y="560" width="15" height="10" as="geometry" />
        </mxCell>
        <mxCell id="zqJEMAXFBgw-pL-KyHL0-17" value="$$ m$$" style="text;html=1;align=center;verticalAlign=middle;whiteSpace=wrap;rounded=0;fontSize=8;" vertex="1" parent="1">
          <mxGeometry x="368" y="525.5" width="15" height="10" as="geometry" />
        </mxCell>
        <mxCell id="zqJEMAXFBgw-pL-KyHL0-18" value="$$ \theta$$" style="text;html=1;align=center;verticalAlign=middle;whiteSpace=wrap;rounded=0;fontSize=8;" vertex="1" parent="1">
          <mxGeometry x="348" y="585" width="15" height="10" as="geometry" />
        </mxCell>
        <mxCell id="zqJEMAXFBgw-pL-KyHL0-20" value="" style="verticalLabelPosition=bottom;verticalAlign=top;html=1;shape=mxgraph.basic.arc;startAngle=0.9794252440875133;endAngle=0.22268454454386913;rotation=30;" vertex="1" parent="1">
          <mxGeometry x="329" y="587" width="19" height="19" as="geometry" />
        </mxCell>
        <mxCell id="zqJEMAXFBgw-pL-KyHL0-23" value="" style="endArrow=none;html=1;rounded=0;strokeWidth=2;" edge="1" parent="1">
          <mxGeometry width="50" height="50" relative="1" as="geometry">
            <mxPoint x="476" y="600" as="sourcePoint" />
            <mxPoint x="606" y="600" as="targetPoint" />
          </mxGeometry>
        </mxCell>
        <mxCell id="zqJEMAXFBgw-pL-KyHL0-24" value="" style="endArrow=none;html=1;rounded=0;strokeWidth=2;" edge="1" parent="1">
          <mxGeometry width="50" height="50" relative="1" as="geometry">
            <mxPoint x="477" y="600" as="sourcePoint" />
            <mxPoint x="487" y="610" as="targetPoint" />
            <Array as="points">
              <mxPoint x="477" y="600" />
            </Array>
          </mxGeometry>
        </mxCell>
        <mxCell id="zqJEMAXFBgw-pL-KyHL0-25" value="" style="endArrow=none;html=1;rounded=0;strokeWidth=2;" edge="1" parent="1">
          <mxGeometry width="50" height="50" relative="1" as="geometry">
            <mxPoint x="492" y="600" as="sourcePoint" />
            <mxPoint x="502" y="610" as="targetPoint" />
            <Array as="points">
              <mxPoint x="492" y="600" />
            </Array>
          </mxGeometry>
        </mxCell>
        <mxCell id="zqJEMAXFBgw-pL-KyHL0-26" value="" style="endArrow=none;html=1;rounded=0;strokeWidth=2;" edge="1" parent="1">
          <mxGeometry width="50" height="50" relative="1" as="geometry">
            <mxPoint x="507" y="600" as="sourcePoint" />
            <mxPoint x="517" y="610" as="targetPoint" />
            <Array as="points">
              <mxPoint x="507" y="600" />
            </Array>
          </mxGeometry>
        </mxCell>
        <mxCell id="zqJEMAXFBgw-pL-KyHL0-27" value="" style="endArrow=none;html=1;rounded=0;strokeWidth=2;" edge="1" parent="1">
          <mxGeometry width="50" height="50" relative="1" as="geometry">
            <mxPoint x="523" y="600" as="sourcePoint" />
            <mxPoint x="533" y="610" as="targetPoint" />
            <Array as="points">
              <mxPoint x="523" y="600" />
            </Array>
          </mxGeometry>
        </mxCell>
        <mxCell id="zqJEMAXFBgw-pL-KyHL0-28" value="" style="endArrow=none;html=1;rounded=0;strokeWidth=2;" edge="1" parent="1">
          <mxGeometry width="50" height="50" relative="1" as="geometry">
            <mxPoint x="540" y="600" as="sourcePoint" />
            <mxPoint x="550" y="610" as="targetPoint" />
            <Array as="points">
              <mxPoint x="540" y="600" />
            </Array>
          </mxGeometry>
        </mxCell>
        <mxCell id="zqJEMAXFBgw-pL-KyHL0-29" value="" style="endArrow=none;html=1;rounded=0;strokeWidth=2;" edge="1" parent="1">
          <mxGeometry width="50" height="50" relative="1" as="geometry">
            <mxPoint x="556" y="600" as="sourcePoint" />
            <mxPoint x="566" y="610" as="targetPoint" />
            <Array as="points">
              <mxPoint x="556" y="600" />
            </Array>
          </mxGeometry>
        </mxCell>
        <mxCell id="zqJEMAXFBgw-pL-KyHL0-30" value="" style="endArrow=none;html=1;rounded=0;strokeWidth=2;" edge="1" parent="1">
          <mxGeometry width="50" height="50" relative="1" as="geometry">
            <mxPoint x="572" y="600" as="sourcePoint" />
            <mxPoint x="582" y="610" as="targetPoint" />
            <Array as="points">
              <mxPoint x="572" y="600" />
            </Array>
          </mxGeometry>
        </mxCell>
        <mxCell id="zqJEMAXFBgw-pL-KyHL0-31" value="" style="endArrow=none;html=1;rounded=0;strokeWidth=2;" edge="1" parent="1">
          <mxGeometry width="50" height="50" relative="1" as="geometry">
            <mxPoint x="588" y="600" as="sourcePoint" />
            <mxPoint x="598" y="610" as="targetPoint" />
            <Array as="points">
              <mxPoint x="588" y="600" />
            </Array>
          </mxGeometry>
        </mxCell>
        <mxCell id="zqJEMAXFBgw-pL-KyHL0-32" value="" style="endArrow=none;html=1;rounded=0;strokeWidth=2;" edge="1" parent="1">
          <mxGeometry width="50" height="50" relative="1" as="geometry">
            <mxPoint x="605" y="600" as="sourcePoint" />
            <mxPoint x="615" y="610" as="targetPoint" />
            <Array as="points">
              <mxPoint x="605" y="600" />
            </Array>
          </mxGeometry>
        </mxCell>
        <mxCell id="zqJEMAXFBgw-pL-KyHL0-33" value="" style="verticalLabelPosition=bottom;shadow=0;dashed=0;align=center;html=1;verticalAlign=top;shape=mxgraph.electrical.logic_gates.inverting_contact;strokeWidth=2;" vertex="1" parent="1">
          <mxGeometry x="537" y="594.9999999999995" width="10" height="10" as="geometry" />
        </mxCell>
        <mxCell id="zqJEMAXFBgw-pL-KyHL0-34" value="" style="endArrow=none;html=1;rounded=0;entryX=0.5;entryY=1;entryDx=0;entryDy=0;exitX=0.735;exitY=0.113;exitDx=0;exitDy=0;exitPerimeter=0;" edge="1" parent="1" source="zqJEMAXFBgw-pL-KyHL0-33" target="zqJEMAXFBgw-pL-KyHL0-35">
          <mxGeometry width="50" height="50" relative="1" as="geometry">
            <mxPoint x="537" y="590" as="sourcePoint" />
            <mxPoint x="587" y="520" as="targetPoint" />
          </mxGeometry>
        </mxCell>
        <mxCell id="zqJEMAXFBgw-pL-KyHL0-35" value="" style="whiteSpace=wrap;html=1;aspect=fixed;rotation=30;" vertex="1" parent="1">
          <mxGeometry x="572" y="520" width="21" height="21" as="geometry" />
        </mxCell>
        <mxCell id="zqJEMAXFBgw-pL-KyHL0-36" value="$$ l$$" style="text;html=1;align=center;verticalAlign=middle;whiteSpace=wrap;rounded=0;fontSize=8;" vertex="1" parent="1">
          <mxGeometry x="542" y="556" width="15" height="10" as="geometry" />
        </mxCell>
        <mxCell id="zqJEMAXFBgw-pL-KyHL0-37" value="$$ m$$" style="text;html=1;align=center;verticalAlign=middle;whiteSpace=wrap;rounded=0;fontSize=8;" vertex="1" parent="1">
          <mxGeometry x="575" y="525.5" width="15" height="10" as="geometry" />
        </mxCell>
        <mxCell id="zqJEMAXFBgw-pL-KyHL0-38" value="$$ \theta$$" style="text;html=1;align=center;verticalAlign=middle;whiteSpace=wrap;rounded=0;fontSize=8;" vertex="1" parent="1">
          <mxGeometry x="555" y="585" width="15" height="10" as="geometry" />
        </mxCell>
        <mxCell id="zqJEMAXFBgw-pL-KyHL0-39" value="" style="verticalLabelPosition=bottom;verticalAlign=top;html=1;shape=mxgraph.basic.arc;startAngle=0.9794252440875133;endAngle=0.22268454454386913;rotation=30;" vertex="1" parent="1">
          <mxGeometry x="536" y="587" width="19" height="19" as="geometry" />
        </mxCell>
        <mxCell id="zqJEMAXFBgw-pL-KyHL0-40" value="" style="endArrow=classic;startArrow=classic;html=1;rounded=0;endSize=3;startSize=3;" edge="1" parent="1">
          <mxGeometry width="50" height="50" relative="1" as="geometry">
            <mxPoint x="547" y="580" as="sourcePoint" />
            <mxPoint x="564" y="550" as="targetPoint" />
          </mxGeometry>
        </mxCell>
        <mxCell id="zqJEMAXFBgw-pL-KyHL0-44" style="edgeStyle=orthogonalEdgeStyle;rounded=0;orthogonalLoop=1;jettySize=auto;html=1;exitX=1;exitY=0.5;exitDx=0;exitDy=0;" edge="1" parent="1" source="zqJEMAXFBgw-pL-KyHL0-46">
          <mxGeometry relative="1" as="geometry">
            <mxPoint x="1320" y="325" as="targetPoint" />
          </mxGeometry>
        </mxCell>
        <mxCell id="zqJEMAXFBgw-pL-KyHL0-71" style="edgeStyle=orthogonalEdgeStyle;rounded=0;orthogonalLoop=1;jettySize=auto;html=1;exitX=1;exitY=0.5;exitDx=0;exitDy=0;entryX=0.5;entryY=1;entryDx=0;entryDy=0;" edge="1" parent="1" source="zqJEMAXFBgw-pL-KyHL0-46" target="zqJEMAXFBgw-pL-KyHL0-50">
          <mxGeometry relative="1" as="geometry">
            <mxPoint x="1215" y="415" as="targetPoint" />
            <Array as="points">
              <mxPoint x="1300" y="325" />
              <mxPoint x="1300" y="415" />
              <mxPoint x="980" y="415" />
            </Array>
          </mxGeometry>
        </mxCell>
        <mxCell id="zqJEMAXFBgw-pL-KyHL0-46" value="Robot" style="rounded=0;whiteSpace=wrap;html=1;strokeWidth=2;" vertex="1" parent="1">
          <mxGeometry x="1110" y="300" width="160" height="50" as="geometry" />
        </mxCell>
        <mxCell id="zqJEMAXFBgw-pL-KyHL0-47" style="edgeStyle=orthogonalEdgeStyle;rounded=0;orthogonalLoop=1;jettySize=auto;html=1;exitX=1;exitY=0.5;exitDx=0;exitDy=0;entryX=0;entryY=0.5;entryDx=0;entryDy=0;" edge="1" parent="1" source="zqJEMAXFBgw-pL-KyHL0-50" target="zqJEMAXFBgw-pL-KyHL0-46">
          <mxGeometry relative="1" as="geometry">
            <mxPoint x="1099.9999999999998" y="325" as="sourcePoint" />
          </mxGeometry>
        </mxCell>
        <mxCell id="zqJEMAXFBgw-pL-KyHL0-50" value="Controller" style="rounded=0;whiteSpace=wrap;html=1;strokeWidth=2;" vertex="1" parent="1">
          <mxGeometry x="940" y="300" width="80" height="50" as="geometry" />
        </mxCell>
        <mxCell id="zqJEMAXFBgw-pL-KyHL0-51" style="edgeStyle=orthogonalEdgeStyle;rounded=0;orthogonalLoop=1;jettySize=auto;html=1;exitX=0;exitY=0.5;exitDx=0;exitDy=0;endArrow=none;endFill=0;startArrow=classic;startFill=1;" edge="1" parent="1" source="zqJEMAXFBgw-pL-KyHL0-50">
          <mxGeometry relative="1" as="geometry">
            <mxPoint x="840" y="325" as="targetPoint" />
            <mxPoint x="870" y="325" as="sourcePoint" />
          </mxGeometry>
        </mxCell>
        <mxCell id="zqJEMAXFBgw-pL-KyHL0-57" value="$$ \tau$$" style="text;html=1;align=center;verticalAlign=middle;whiteSpace=wrap;rounded=0;" vertex="1" parent="1">
          <mxGeometry x="1060" y="309" width="15" height="10" as="geometry" />
        </mxCell>
        <mxCell id="zqJEMAXFBgw-pL-KyHL0-58" value="$$ \dot{\theta}_d$$" style="text;html=1;align=center;verticalAlign=middle;whiteSpace=wrap;rounded=0;" vertex="1" parent="1">
          <mxGeometry x="881" y="308" width="15" height="10" as="geometry" />
        </mxCell>
        <mxCell id="zqJEMAXFBgw-pL-KyHL0-59" value="$$ \ddot{\theta}_d$$" style="text;html=1;align=center;verticalAlign=middle;whiteSpace=wrap;rounded=0;" vertex="1" parent="1">
          <mxGeometry x="913" y="308" width="15" height="10" as="geometry" />
        </mxCell>
        <mxCell id="zqJEMAXFBgw-pL-KyHL0-60" value="$$ \theta_d$$" style="text;html=1;align=center;verticalAlign=middle;whiteSpace=wrap;rounded=0;" vertex="1" parent="1">
          <mxGeometry x="847" y="309" width="15" height="10" as="geometry" />
        </mxCell>
        <mxCell id="zqJEMAXFBgw-pL-KyHL0-61" value="Desired Reference" style="text;html=1;align=center;verticalAlign=middle;whiteSpace=wrap;rounded=0;fontFamily=Garamond;" vertex="1" parent="1">
          <mxGeometry x="858" y="334" width="60" height="20" as="geometry" />
        </mxCell>
        <mxCell id="zqJEMAXFBgw-pL-KyHL0-63" value="$$ M(\theta)\ddot{\theta}+C(\theta, \dot{\theta})\dot{\theta}+g(\theta)=\tau$$" style="text;html=1;align=center;verticalAlign=middle;whiteSpace=wrap;rounded=0;fontSize=9;" vertex="1" parent="1">
          <mxGeometry x="1182.5" y="354" width="15" height="10" as="geometry" />
        </mxCell>
        <mxCell id="zqJEMAXFBgw-pL-KyHL0-64" value="$$ \dot{\theta}$$" style="text;html=1;align=center;verticalAlign=middle;whiteSpace=wrap;rounded=0;" vertex="1" parent="1">
          <mxGeometry x="1004" y="399" width="15" height="10" as="geometry" />
        </mxCell>
        <mxCell id="zqJEMAXFBgw-pL-KyHL0-65" value="$$ \theta$$" style="text;html=1;align=center;verticalAlign=middle;whiteSpace=wrap;rounded=0;" vertex="1" parent="1">
          <mxGeometry x="988" y="400" width="15" height="10" as="geometry" />
        </mxCell>
        <mxCell id="zqJEMAXFBgw-pL-KyHL0-74" value="$$ \tau\to\theta$$" style="text;html=1;align=center;verticalAlign=middle;whiteSpace=wrap;rounded=0;" vertex="1" parent="1">
          <mxGeometry x="1182.5" y="281" width="15" height="10" as="geometry" />
        </mxCell>
        <mxCell id="zqJEMAXFBgw-pL-KyHL0-76" value="$$ \dot{\theta}$$" style="text;html=1;align=center;verticalAlign=middle;whiteSpace=wrap;rounded=0;" vertex="1" parent="1">
          <mxGeometry x="1292" y="309.5" width="15" height="10" as="geometry" />
        </mxCell>
        <mxCell id="zqJEMAXFBgw-pL-KyHL0-77" value="$$ \theta$$" style="text;html=1;align=center;verticalAlign=middle;whiteSpace=wrap;rounded=0;" vertex="1" parent="1">
          <mxGeometry x="1276" y="310.5" width="15" height="10" as="geometry" />
        </mxCell>
        <mxCell id="zqJEMAXFBgw-pL-KyHL0-78" value="" style="endArrow=classic;html=1;rounded=0;" edge="1" parent="1">
          <mxGeometry width="50" height="50" relative="1" as="geometry">
            <mxPoint x="900" y="700" as="sourcePoint" />
            <mxPoint x="900" y="560" as="targetPoint" />
          </mxGeometry>
        </mxCell>
        <mxCell id="zqJEMAXFBgw-pL-KyHL0-79" value="" style="endArrow=classic;html=1;rounded=0;" edge="1" parent="1">
          <mxGeometry width="50" height="50" relative="1" as="geometry">
            <mxPoint x="900" y="700" as="sourcePoint" />
            <mxPoint x="1070" y="700" as="targetPoint" />
          </mxGeometry>
        </mxCell>
      </root>
    </mxGraphModel>
  </diagram>
</mxfile>
